<svg width="40" height="40" viewBox="0 0 40 40" fill="none" xmlns="http://www.w3.org/2000/svg">
<rect width="40" height="40" rx="20" fill="white"/>
<path d="M20 11C15.0301 11 11 15.1314 11 20.2278C11 24.305 13.5788 27.764 17.1548 28.9841C17.6046 29.0695 17.7697 28.784 17.7697 28.5402C17.7697 28.3202 17.7613 27.5932 17.7575 26.8222C15.2536 27.3804 14.7253 25.7334 14.7253 25.7334C14.3159 24.6668 13.726 24.3832 13.726 24.3832C12.9095 23.8105 13.7876 23.8222 13.7876 23.8222C14.6914 23.8873 15.1672 24.7732 15.1672 24.7732C15.9699 26.1839 17.2727 25.776 17.7863 25.5403C17.867 24.9438 18.1003 24.5368 18.3576 24.3064C16.3587 24.073 14.2572 23.2817 14.2572 19.7459C14.2572 18.7385 14.6088 17.9152 15.1845 17.269C15.0911 17.0366 14.783 16.098 15.2717 14.827C15.2717 14.827 16.0275 14.579 17.7474 15.7729C18.4652 15.5684 19.2352 15.4659 20 15.4624C20.7649 15.4659 21.5354 15.5684 22.2547 15.7729C23.9725 14.579 24.7272 14.827 24.7272 14.827C25.2171 16.098 24.9089 17.0366 24.8155 17.269C25.3925 17.9152 25.7417 18.7384 25.7417 19.7459C25.7417 23.2901 23.6363 24.0706 21.6322 24.299C21.955 24.5854 22.2426 25.147 22.2426 26.0078C22.2426 27.2425 22.2322 28.2363 22.2322 28.5402C22.2322 28.7858 22.3942 29.0735 22.8504 28.9829C26.4245 27.7613 29 24.3036 29 20.2278C29 15.1314 24.9705 11 20 11Z" fill="#24292F"/>
<path d="M14.3704 24.1449C14.3507 24.1908 14.2802 24.2045 14.2162 24.1731C14.1509 24.143 14.1142 24.0805 14.1354 24.0344C14.1548 23.9872 14.2253 23.9741 14.2904 24.0058C14.3558 24.0358 14.3931 24.0989 14.3704 24.1449ZM14.8132 24.5499C14.7702 24.5908 14.6863 24.5718 14.6294 24.5073C14.5705 24.443 14.5595 24.357 14.603 24.3155C14.6473 24.2748 14.7287 24.2938 14.7877 24.3582C14.8465 24.4233 14.858 24.5088 14.8131 24.55M15.1169 25.0681C15.0617 25.1074 14.9715 25.0706 14.9158 24.9885C14.8607 24.9065 14.8607 24.8081 14.917 24.7686C14.9729 24.7292 15.0617 24.7647 15.1182 24.8461C15.1732 24.9295 15.1732 25.028 15.1168 25.0682M15.6305 25.6683C15.5811 25.724 15.4761 25.7091 15.3992 25.633C15.3205 25.5586 15.2986 25.453 15.3481 25.3972C15.398 25.3413 15.5036 25.357 15.5811 25.4325C15.6593 25.5068 15.6831 25.6132 15.6305 25.6683M16.2943 25.871C16.2726 25.9432 16.1714 25.976 16.0694 25.9453C15.9677 25.9137 15.901 25.829 15.9216 25.756C15.9427 25.6833 16.0444 25.6491 16.1471 25.6819C16.2487 25.7134 16.3155 25.7974 16.2943 25.871M17.0498 25.9569C17.0524 26.033 16.9659 26.0961 16.8589 26.0975C16.7512 26.0999 16.6642 26.0383 16.6631 25.9634C16.6631 25.8866 16.7476 25.8241 16.8551 25.8222C16.9621 25.8201 17.0498 25.8812 17.0498 25.9569ZM17.792 25.9277C17.8048 26.0019 17.7304 26.0782 17.6242 26.0985C17.5197 26.118 17.423 26.0722 17.4097 25.9986C17.3967 25.9225 17.4725 25.8463 17.5767 25.8265C17.6832 25.8076 17.7784 25.8522 17.792 25.9277Z" fill="#24292F"/>
</svg>
